<svg id="e2135931-d275-4012-9400-51b02bbd380e" data-name="Слой 1" xmlns="http://www.w3.org/2000/svg" xmlns:xlink="http://www.w3.org/1999/xlink" viewBox="0 0 4702.78305 2281.21946">
  <defs>
    <clipPath id="e77f5e65-dd4a-4c66-a254-9d4fe521ae0f" transform="translate(789.95147 310.43549)">
      <path d="M-419.37644,1145.11111S-47.11465,577.94859,950.40074,745.01983,2269.57985,635.10463,2404.509,402.08443s452.97958-822.16577,881.86309-694.66414S3912.83158,960.4537,3912.83158,960.4537s-19.27538,558.3691-346.96277,496.81686-2014.91057-655.64413-2969.056,14.83862S196.24018,2085.43589-500.09422,1606.20586-419.37644,1145.11111-419.37644,1145.11111Z" fill="none"/>
    </clipPath>
    <linearGradient id="f8a381b4-c2b8-4b4c-82c0-5dd7cb4865e9" data-name="Безымянный градиент" x1="1561.43994" y1="1660.34802" x2="1561.43994" gradientUnits="userSpaceOnUse">
      <stop offset="0" stop-color="#3060b5"/>
      <stop offset="1" stop-color="#18305b"/>
    </linearGradient>
    <linearGradient id="bbf49e76-7be0-4b38-a1bc-0b311a1bffa5" data-name="Безымянный градиент 2" x1="1561.43994" y1="1660.34802" x2="1561.43994" y2="958.9182" gradientUnits="userSpaceOnUse">
      <stop offset="0" stop-color="#4487ff"/>
      <stop offset="1" stop-color="#224480"/>
    </linearGradient>
  </defs>
  <title>2</title>
  <path d="M3122.87988,0h-457.2102C2549.947,143.90125,2461.11353,304.32959,2404.509,402.08435c-134.9292,233.02026-456.59289,510.00671-1454.10827,342.93549C527.77863,674.236,217.39563,735.24939,0,829.085v831.263H341.97253c70.33014-54.89,154.19593-117.5155,254.84034-188.23883,724.76416-509.29541,1872.49328-288.95172,2526.067-126.59649Z" transform="translate(789.95147 310.43549)" fill="#4487ff"/>
  <path d="M-419.37644,1145.11111S-47.11465,577.94859,950.40074,745.01983,2269.57985,635.10463,2404.509,402.08443s452.97958-822.16577,881.86309-694.66414S3912.83158,960.4537,3912.83158,960.4537s-19.27538,558.3691-346.96277,496.81686-2014.91057-655.64413-2969.056,14.83862S196.24018,2085.43589-500.09422,1606.20586-419.37644,1145.11111-419.37644,1145.11111Z" transform="translate(789.95147 310.43549)" fill="none"/>
  <g opacity="0.6">
    <g clip-path="url(#e77f5e65-dd4a-4c66-a254-9d4fe521ae0f)">
      <path d="M3122.87988,1660.348V0H2787.72144c-39.41358,83.85645-78.34156,192.11438-110.65113,331.21375-116.823,502.9458-370.54565,642.00524-1133.54162,582.05053C896.51135,862.42291,428.01166,701.42749,0,875.038V1660.348Z" transform="translate(789.95147 310.43549)" stroke="#707070" opacity="0.31" fill="url(#f8a381b4-c2b8-4b4c-82c0-5dd7cb4865e9)"/>
      <path d="M3122.87988,1421.27338C2893.78,1257.782,2475.38428,1069.0061,1724.33557,986.54614,1021.56165,909.38641,427.06055,1006.00043,0,1126.62952V1660.348H3122.87988Z" transform="translate(789.95147 310.43549)" opacity="0.79" fill="url(#bbf49e76-7be0-4b38-a1bc-0b311a1bffa5)"/>
    </g>
  </g>
</svg>
