<svg xmlns="http://www.w3.org/2000/svg" xmlns:xlink="http://www.w3.org/1999/xlink" width="3306" height="1471" viewBox="0 0 3306 1471">
  <defs>
    <clipPath id="clip-path">
      <rect width="3306" height="1390" fill="none"/>
    </clipPath>
  </defs>
  <g id="Сгруппировать_108" data-name="Сгруппировать 108" transform="translate(712 -4915.5)">
    <ellipse id="Эллипс_19" data-name="Эллипс 19" cx="1653" cy="441" rx="1653" ry="441" transform="translate(-712 4915.5)" fill="#ff6752"/>
    <g id="Повторить_сетку_2" data-name="Повторить сетку 2" transform="translate(-712 4996.5)" opacity="0.3" clip-path="url(#clip-path)">
      <g transform="translate(712 -5120)">
        <ellipse id="Эллипс_32" data-name="Эллипс 32" cx="1653" cy="441" rx="1653" ry="441" transform="translate(-712 5120)" fill="#ff6752" opacity="0.15" style="mix-blend-mode: multiply;isolation: isolate"/>
      </g>
      <g transform="translate(712 -5025)">
        <ellipse id="Эллипс_32-2" data-name="Эллипс 32" cx="1653" cy="441" rx="1653" ry="441" transform="translate(-712 5120)" fill="#ff6752" opacity="0.15" style="mix-blend-mode: multiply;isolation: isolate"/>
      </g>
      <g transform="translate(712 -4930)">
        <ellipse id="Эллипс_32-3" data-name="Эллипс 32" cx="1653" cy="441" rx="1653" ry="441" transform="translate(-712 5120)" fill="#ff6752" opacity="0.15" style="mix-blend-mode: multiply;isolation: isolate"/>
      </g>
      <g transform="translate(712 -4835)">
        <ellipse id="Эллипс_32-4" data-name="Эллипс 32" cx="1653" cy="441" rx="1653" ry="441" transform="translate(-712 5120)" fill="#ff6752" opacity="0.15" style="mix-blend-mode: multiply;isolation: isolate"/>
      </g>
      <g transform="translate(712 -4740)">
        <ellipse id="Эллипс_32-5" data-name="Эллипс 32" cx="1653" cy="441" rx="1653" ry="441" transform="translate(-712 5120)" fill="#ff6752" opacity="0.15" style="mix-blend-mode: multiply;isolation: isolate"/>
      </g>
      <g transform="translate(712 -4645)">
        <ellipse id="Эллипс_32-6" data-name="Эллипс 32" cx="1653" cy="441" rx="1653" ry="441" transform="translate(-712 5120)" fill="#ff6752" opacity="0.15" style="mix-blend-mode: multiply;isolation: isolate"/>
      </g>
      <g transform="translate(712 -4550)">
        <ellipse id="Эллипс_32-7" data-name="Эллипс 32" cx="1653" cy="441" rx="1653" ry="441" transform="translate(-712 5120)" fill="#ff6752" opacity="0.15" style="mix-blend-mode: multiply;isolation: isolate"/>
      </g>
      <g transform="translate(712 -4455)">
        <ellipse id="Эллипс_32-8" data-name="Эллипс 32" cx="1653" cy="441" rx="1653" ry="441" transform="translate(-712 5120)" fill="#ff6752" opacity="0.15" style="mix-blend-mode: multiply;isolation: isolate"/>
      </g>
      <g transform="translate(712 -4360)">
        <ellipse id="Эллипс_32-9" data-name="Эллипс 32" cx="1653" cy="441" rx="1653" ry="441" transform="translate(-712 5120)" fill="#ff6752" opacity="0.15" style="mix-blend-mode: multiply;isolation: isolate"/>
      </g>
      <g transform="translate(712 -4265)">
        <ellipse id="Эллипс_32-10" data-name="Эллипс 32" cx="1653" cy="441" rx="1653" ry="441" transform="translate(-712 5120)" fill="#ff6752" opacity="0.15" style="mix-blend-mode: multiply;isolation: isolate"/>
      </g>
      <g transform="translate(712 -4170)">
        <ellipse id="Эллипс_32-11" data-name="Эллипс 32" cx="1653" cy="441" rx="1653" ry="441" transform="translate(-712 5120)" fill="#ff6752" opacity="0.15" style="mix-blend-mode: multiply;isolation: isolate"/>
      </g>
      <g transform="translate(712 -4075)">
        <ellipse id="Эллипс_32-12" data-name="Эллипс 32" cx="1653" cy="441" rx="1653" ry="441" transform="translate(-712 5120)" fill="#ff6752" opacity="0.15" style="mix-blend-mode: multiply;isolation: isolate"/>
      </g>
      <g transform="translate(712 -3980)">
        <ellipse id="Эллипс_32-13" data-name="Эллипс 32" cx="1653" cy="441" rx="1653" ry="441" transform="translate(-712 5120)" fill="#ff6752" opacity="0.15" style="mix-blend-mode: multiply;isolation: isolate"/>
      </g>
      <g transform="translate(712 -3885)">
        <ellipse id="Эллипс_32-14" data-name="Эллипс 32" cx="1653" cy="441" rx="1653" ry="441" transform="translate(-712 5120)" fill="#ff6752" opacity="0.15" style="mix-blend-mode: multiply;isolation: isolate"/>
      </g>
      <g transform="translate(712 -3790)">
        <ellipse id="Эллипс_32-15" data-name="Эллипс 32" cx="1653" cy="441" rx="1653" ry="441" transform="translate(-712 5120)" fill="#ff6752" opacity="0.15" style="mix-blend-mode: multiply;isolation: isolate"/>
      </g>
    </g>
  </g>
</svg>
