<?xml version="1.0" encoding="utf-8"?>
<!-- Generator: Adobe Illustrator 24.0.1, SVG Export Plug-In . SVG Version: 6.00 Build 0)  -->
<svg version="1.1" id="Слой_1" xmlns="http://www.w3.org/2000/svg" xmlns:xlink="http://www.w3.org/1999/xlink" x="0px" y="0px"
	 viewBox="0 0 416 448" style="enable-background:new 0 0 416 448;" xml:space="preserve">
<style type="text/css">
	.st0{fill:#CCCCCC;}
</style>
<title></title>
<g id="icomoon-ignore">
</g>
<path class="st0" d="M224,407.3L384,320V161l-160,58.3V407.3z M208,191l174.5-63.5L208,64L33.5,127.5L208,191z M416,128v192
	c0,11.8-6.5,22.5-16.8,28l-176,96c-4.8,2.8-10,4-15.3,4s-10.5-1.3-15.3-4l-176-96C6.5,342.5,0,331.8,0,320V128
	c0-13.5,8.5-25.5,21-30l176-64c3.5-1.3,7.3-2,11-2s7.5,0.8,11,2l176,64C407.5,102.5,416,114.5,416,128z"/>
</svg>
