<?xml version="1.0" encoding="utf-8"?>
<!-- Generator: Adobe Illustrator 24.0.1, SVG Export Plug-In . SVG Version: 6.00 Build 0)  -->
<svg version="1.1" id="Слой_1" xmlns="http://www.w3.org/2000/svg" xmlns:xlink="http://www.w3.org/1999/xlink" x="0px" y="0px"
	 viewBox="0 0 416 448" style="enable-background:new 0 0 416 448;" xml:space="preserve">
<style type="text/css">
	.st0{fill:#CCCCCC;}
</style>
<title></title>
<g id="icomoon-ignore">
</g>
<g transform="translate(0.000000,623.000000) scale(0.100000,-0.100000)">
	<path class="st0" d="M1584.1,6217.4c-17.8-17.4-40.2-57.9-64-117.3c-10.5-26.1-230.4-625.6-487.9-1332.2
		C774.4,4061.3,443.8,3154.1,297,2751.5s-273-752.3-280.3-778.3c-9.6-32.6-14.2-62.3-16-97.7c-1.8-47.1-0.9-52.9,10.1-73.9
		c6.4-12.3,21.9-28.2,33.8-36.2c20.6-12.3,92.4-13,2026-15.2c1412.4-0.7,2009.5,0.7,2022.3,6.5c22.9,9.4,56.2,57.9,63.6,91.2
		c2.7,13.8,4.1,45.6,3.2,69.5c-1.8,44.2-6.4,57.9-245.5,718.2c-408.3,1126.6-706,1935.3-731.6,1987.4
		c-21.9,44.2-43.4,58.6-81.4,56.5c-58.5-4.3-49.4,15.2-227.7-471.3c-86-233.9-161.4-433.7-167.3-444.6
		c-34.7-59.4-97.8-58.6-132.6,2.2c-6.9,11.6-82.8,215-168.7,451.8c-423.4,1162.8-665.7,1826-684.5,1871.6
		c-29.3,70.2-49.8,109.3-67.7,126.7C1634,6234.1,1602.4,6234.8,1584.1,6217.4z M1657.7,5637.5c28.8-21-2.3,58.6,342.5-880.4
		c95.1-258.5,181.5-498.1,192-532.2c36.1-112.9,36.6-149.1,2.3-230.2c-37.5-88.3-74.1-124.5-116.1-114.4
		c-25.6,6.5-24.2,4.3-197.1,235.3c-75.4,100.6-143.1,188.2-150.9,194.8c-17.4,13.8-59.4,15.2-79.6,1.4c-8.7-5.1-64-74.6-123.5-154.2
		c-59.4-79.6-116.1-150.6-126.2-157.8c-24.2-18.1-45.7-17.4-71.3,2.9c-23.8,17.4-188.4,247.6-205.3,286
		c-15.5,34.8-17.8,97.7-5.5,136.1c24.2,74.6,423.4,1167.1,432.1,1181.6C1576.8,5650.5,1621.6,5663.5,1657.7,5637.5z M3142.4,4308.9
		c8.2-5.1,21-19.5,28.3-31.1c18.7-29.7,214-561.8,301.3-821c28.3-84,30.6-107.9,16.9-154.9c-20.1-69.5-72.7-102.1-117.1-73.1
		c-8.7,5.8-48.5,52.9-87.8,104.3c-39.8,51.4-79.6,99.2-88.2,106.4c-16.9,13.8-52.6,18.1-74.1,8.7c-6.9-2.9-38.4-38.4-70.4-78.2
		c-75-94.8-85-103.5-113.4-103.5c-32.9,0-52.6,18.8-108.8,105.7c-55.3,84.7-63.6,110.1-54.4,170.1c5,31.9,249.2,700.9,267,731.3
		C3064.6,4313.9,3110.8,4329.9,3142.4,4308.9z"/>
</g>
</svg>
