<svg id="aef0fbd7-88de-4ff7-b8d1-0da2b24b1b92" data-name="Слой 1" xmlns="http://www.w3.org/2000/svg" viewBox="0 0 78 78">
  <title>logo</title>
  <circle id="bd31fac9-5696-40d0-ba80-4f0e4e0a6b75" data-name="Эллипс 30" cx="39" cy="39" r="39" fill="#fff"/>
  <g id="eaafc0f7-e808-41c8-9cfd-c94b8ad7ef76" data-name="pet">
    <g id="ea5f4a2b-45d7-49b0-8946-a06b7e87935b" data-name="Сгруппировать 90">
      <path id="a3c6ec30-0450-49cc-95a5-d30040af5e4c" data-name="Контур 269" d="M39.797,31.36a1.055,1.055,0,0,0,.564-.729c.354-6.063-4.652-14.146-6.455-16.844a11.27211,11.27211,0,0,0-4.168,2.939s-2.6,1.747-3.528,10.238C31.08,33.271,37.132,32.239,39.797,31.36Z" fill="none"/>
      <path id="b23b603c-f2b9-4a5b-a220-2652cd3edf9c" data-name="Контур 270" d="M59.115,20.598l-7.979-1.947a3.557,3.557,0,0,0-2.49-2.716c-1.649-.578-7.331-3.844-12.922-2.69,2.114,3.217,6.816,11.148,6.444,17.491a2.793,2.793,0,0,1-1.8,2.343,14.74773,14.74773,0,0,1-4.559.727A13.229,13.229,0,0,1,26,29.492c-.064,1.088-.1,2.265-.107,3.538-.037,6.567-8.379,12.794-8.379,12.794l-1.111,2.3A30.14291,30.14291,0,0,0,26.639,60.277a19.48085,19.48085,0,0,1,1.9-7.44,16.107,16.107,0,0,1,5.38-6.277c.266-7.239,2.615-9.354,4.575-9.838a2.05992,2.05992,0,0,1,1.736.354,2.506,2.506,0,0,1,.971,1.876,6.032,6.032,0,0,0,1.8,3.854,17.68391,17.68391,0,0,1,2.523.415l.073-.683.607-5.9a2.359,2.359,0,0,1,1.988-1.976c3.76-.548,12.139-2.775,12.683-11.827A2.343,2.343,0,0,0,59.115,20.598Zm-12.431,2.1a1.019,1.019,0,1,1,1.019-1.019h0a1.019,1.019,0,0,1-1.016,1.022h-.006Z" fill="none"/>
      <path id="a4541eb1-7cb9-43c1-a2ae-b28b5c2eedc0" data-name="Контур 271" d="M51.136,49.652c-.3-2.566-3.924-4.681-8.6-4.981a7.52305,7.52305,0,0,1-2.652-5.209c-.027-.5-.4-1-.885-.876-1.251.308-3.374,1.913-3.48,9.247,0,0-6.8,3.432-7.294,13.326a29.74014,29.74014,0,0,0,14.866,4.246l-.061-1.417a1.327,1.327,0,0,1,.807-1.222l5.794-2.173s2.717.152,3.848-1.888a13.89959,13.89959,0,0,1,1.495-2.21.924.924,0,0,0-.043-1.273C53.741,54.079,51.361,51.569,51.136,49.652Zm-3.437,2.484a1.018,1.018,0,1,1,.004,0h-.004Z" fill="none"/>
    </g>
  </g>
</svg>
