<?xml version="1.0" encoding="utf-8"?>
<!-- Generator: Adobe Illustrator 24.0.1, SVG Export Plug-In . SVG Version: 6.00 Build 0)  -->
<svg version="1.1" id="aa0c21ca-0ad1-4040-8a13-9b938ed8e80d"
	 xmlns="http://www.w3.org/2000/svg" xmlns:xlink="http://www.w3.org/1999/xlink" x="0px" y="0px" viewBox="0 0 78 78"
	 style="enable-background:new 0 0 78 78;" xml:space="preserve">
<style type="text/css">
	.st0{fill:#FD5D40;}
	.st1{fill:#FFFFFF;}
</style>
<title>logo-ico</title>
<circle id="b6b1bbc9-cdbb-471f-aa68-da3d9fd69518" class="st0" cx="39" cy="39" r="39"/>
<g id="bee574df-09ba-4e38-9111-375d96f47e9f">
	<g id="b8740136-b293-465a-9c3d-949e703f8a2b">
		<path id="b8a11b6a-fd58-4d34-b073-c273b5b45f09" class="st1" d="M38.6,30c0.3-0.2,0.6-0.5,0.6-0.8c0.4-6.9-5.3-16.1-7.4-19.2
			c-1.8,0.7-3.4,1.9-4.8,3.4c0,0-3,2-4,11.7C28.7,32.2,35.6,31.1,38.6,30z"/>
		<path id="af9dff61-dcd1-4ef5-bf54-be471ee8bcb6" class="st1" d="M60.7,17.8l-9.1-2.2c-0.3-1.5-1.4-2.7-2.8-3.1
			C46.9,11.8,40.4,8,34,9.4c2.4,3.7,7.8,12.7,7.4,20c-0.1,1.2-0.9,2.2-2.1,2.7c-1.7,0.5-3.4,0.8-5.2,0.8c-4.3,0-8.3-1.8-11.2-4.9
			c-0.1,1.2-0.1,2.6-0.1,4c0,7.5-9.6,14.6-9.6,14.6l-1.3,2.6c2.6,5.6,6.6,10.4,11.7,13.9c0.2-2.9,0.9-5.8,2.2-8.5
			c1.4-2.9,3.5-5.4,6.1-7.2c0.3-8.3,3-10.7,5.2-11.2c0.7-0.2,1.4,0,2,0.4c0.7,0.5,1.1,1.3,1.1,2.1c0.1,1.7,0.9,3.2,2.1,4.4
			c1,0.1,1.9,0.2,2.9,0.5l0.1-0.8l0.7-6.7c0.2-1.2,1.1-2.1,2.3-2.3c4.3-0.6,13.9-3.2,14.5-13.5C62.7,19.1,61.9,18.1,60.7,17.8z
			 M46.5,20.2c-0.6,0-1.2-0.5-1.2-1.2c0-0.6,0.5-1.2,1.2-1.2c0.6,0,1.2,0.5,1.2,1.2c0,0,0,0,0,0l0,0C47.7,19.6,47.1,20.2,46.5,20.2
			L46.5,20.2L46.5,20.2z"/>
		<path id="b9805220-9aa1-41d9-915b-412140358f21" class="st1" d="M51.6,50.9c-0.3-2.9-4.5-5.3-9.8-5.7c-1.8-1.5-2.9-3.6-3-5.9
			c0-0.6-0.5-1.1-1-1c-1.4,0.4-3.9,2.2-4,10.6c0,0-7.8,3.9-8.3,15.2c5.1,3.1,11,4.8,17,4.8l-0.1-1.6c0-0.6,0.4-1.2,0.9-1.4l6.6-2.5
			c0,0,3.1,0.2,4.4-2.2c0.5-0.9,1.1-1.7,1.7-2.5c0.4-0.4,0.4-1.1,0-1.5C54.6,56,51.8,53.1,51.6,50.9z M47.7,53.8
			c-0.6,0-1.2-0.5-1.2-1.2c0-0.6,0.5-1.2,1.2-1.2c0.6,0,1.2,0.5,1.2,1.2C48.8,53.2,48.3,53.8,47.7,53.8L47.7,53.8z"/>
	</g>
</g>
</svg>
