<?xml version="1.0" encoding="utf-8"?>
<!-- Generator: Adobe Illustrator 24.0.1, SVG Export Plug-In . SVG Version: 6.00 Build 0)  -->
<svg version="1.1" id="aef0fbd7-88de-4ff7-b8d1-0da2b24b1b92"
	 xmlns="http://www.w3.org/2000/svg" xmlns:xlink="http://www.w3.org/1999/xlink" x="0px" y="0px" viewBox="0 0 78 78"
	 style="enable-background:new 0 0 78 78;" xml:space="preserve">
<style type="text/css">
	.st0{fill:#FFFFFF;}
</style>
<title>logo</title>
<g>
	<path class="st0" d="M46.7,20.7c-0.6,0-1,0.5-1,1c0,0.6,0.5,1,1,1l0,0h0c0.6,0,1-0.5,1-1C47.7,21.1,47.2,20.7,46.7,20.7z"/>
	<path class="st0" d="M47.7,50.1c-0.6,0-1,0.5-1,1c0,0.6,0.5,1,1,1h0c0.6,0,1-0.5,1-1C48.7,50.6,48.3,50.1,47.7,50.1z"/>
	<path class="st0" d="M39,0C17.5,0,0,17.5,0,39s17.5,39,39,39s39-17.5,39-39S60.5,0,39,0z M29.7,16.7c1.1-1.3,2.6-2.3,4.2-2.9
		c1.8,2.7,6.8,10.8,6.5,16.8c-0.1,0.3-0.3,0.6-0.6,0.7c-2.7,0.9-8.7,1.9-13.6-4.4C27.1,18.5,29.7,16.7,29.7,16.7z M55,56.5
		c-0.6,0.7-1.1,1.4-1.5,2.2c-1.1,2-3.8,1.9-3.8,1.9l-5.8,2.2C43.3,63,43,63.5,43,64l0.1,1.4c-5.2-0.1-10.4-1.5-14.9-4.2
		c0.5-9.9,7.3-13.3,7.3-13.3c0.1-7.3,2.2-8.9,3.5-9.2c0.5-0.1,0.9,0.4,0.9,0.9c0.1,2,1.1,3.9,2.7,5.2c4.7,0.3,8.3,2.4,8.6,5
		c0.2,1.9,2.6,4.4,3.8,5.6C55.3,55.6,55.3,56.1,55,56.5z M48.2,34.7c-1,0.2-1.8,1-2,2l-0.6,5.9l-0.1,0.7c-0.8-0.2-1.7-0.3-2.5-0.4
		c-1-1-1.7-2.4-1.8-3.9c0-0.7-0.4-1.4-1-1.9c-0.5-0.4-1.1-0.5-1.7-0.4c-2,0.5-4.3,2.6-4.6,9.8c-2.3,1.6-4.2,3.8-5.4,6.3
		c-1.1,2.3-1.8,4.9-1.9,7.4c-4.4-3.1-8-7.3-10.2-12.2l1.1-2.3c0,0,8.3-6.2,8.4-12.8c0-1.3,0-2.4,0.1-3.5c2.5,2.8,6.1,4.3,9.8,4.3
		c1.5,0,3.1-0.2,4.6-0.7c1-0.4,1.7-1.3,1.8-2.3c0.4-6.3-4.3-14.3-6.4-17.5c5.6-1.2,11.3,2.1,12.9,2.7c1.3,0.4,2.2,1.4,2.5,2.7l8,1.9
		c1,0.3,1.7,1.2,1.8,2.2C60.3,31.9,52,34.1,48.2,34.7z"/>
</g>
</svg>
